<svg width="94" height="23" viewBox="0 0 94 23" fill="none" xmlns="http://www.w3.org/2000/svg">
<path d="M27.7757 9.08798L27.4557 11.488H7.71169L7.55169 12.096H27.3597L27.1037 13.984H7.10369L6.94369 14.72H26.9757L26.6877 16.896H21.3757L22.7837 18.592L26.6557 17.824L26.2717 20.576L24.6717 20.896L25.8877 22.304H19.8077L15.5837 16.896H13.4397L13.1517 19.008L16.7677 18.56L16.3837 21.184L7.61569 22.336L8.38369 16.896H6.39969L5.11969 22.336H-0.000312477L2.71969 10.24L1.85569 9.08798H27.7757ZM23.9677 4.31998H18.2077L17.6317 8.41598H12.7677L13.3437 4.31998H7.51969L7.03969 7.87198H2.52769L3.26369 2.52798H13.5997L13.6957 1.88798H3.96769L4.22369 -1.90735e-05H28.5437L28.2877 1.88798H18.5597L18.4637 2.52798H28.7997L28.0637 7.87198H23.4877L23.9677 4.31998ZM12.6717 4.86398L12.4477 6.33598H7.87169L8.09569 4.86398H12.6717ZM23.2957 4.86398L23.0717 6.33598H18.5277L18.7517 4.86398H23.2957ZM12.3837 6.91198L12.1597 8.35198H7.58369L7.80769 6.91198H12.3837ZM23.0077 6.91198L22.7837 8.35198H18.2397L18.4637 6.91198H23.0077ZM45.1172 9.02398L45.9492 3.13598H42.8452L43.2612 0.0959816H60.1892L57.5652 18.816H58.3652L59.5492 17.76L58.9092 22.4H52.1892L53.6292 12.064H50.0452L48.6052 22.336H43.2292L44.6692 12.064H41.8852L42.3332 9.02398H45.1172ZM33.8532 22.432L35.8052 8.51198H34.1732L34.5892 5.47198H41.3732L39.6132 18.048L41.6292 17.536L41.2132 20.608L33.8532 22.432ZM51.3252 3.13598L50.4932 9.02398H54.0772L54.9092 3.13598H51.3252ZM40.7652 -1.90735e-05L41.7892 4.25598H37.2772L36.2532 -1.90735e-05H40.7652ZM83.9627 5.15198H85.3707L87.7707 3.03998H77.4347L77.8507 -1.90735e-05H93.6587L93.1467 3.64798L91.4187 5.15198H93.5307L92.0907 15.424C92.0054 16.0426 91.728 16.5653 91.2587 16.992C90.7894 17.4186 90.2454 17.632 89.6267 17.632H86.0107L87.7387 16.128L87.8667 15.2H85.7547L85.4347 17.632H81.1787L81.4987 15.2H79.3547L79.0347 17.632H74.7787L76.5067 5.15198H78.4907L77.9467 3.64798H83.4187L83.9627 5.15198ZM65.6587 21.888L67.2907 18.848L68.8267 7.90398H67.6107L68.0587 4.86398H74.7467L72.9547 17.536L77.3387 18.848H92.2187L91.8027 21.888H74.7787L71.6427 20.96L71.1307 21.888H65.6587ZM73.5947 -1.90735e-05L74.9067 3.64798H70.0427L68.7307 -1.90735e-05H73.5947ZM80.1867 9.11998H82.3627L82.5227 7.90398H80.3787L80.1867 9.11998ZM79.7067 12.768H81.8507L82.0107 11.552H79.8667L79.7067 12.768ZM86.1067 12.768H88.1867L88.3787 11.552H86.2667L86.1067 12.768ZM86.7787 7.90398L86.6187 9.11998H88.6987L88.8907 7.90398H86.7787Z" fill="url(#paint0_linear_4_2)"/>
<defs>
<linearGradient id="paint0_linear_4_2" x1="-0.320312" y1="11.144" x2="94.6797" y2="11.144" gradientUnits="userSpaceOnUse">
<stop stop-color="#C3E4FF"/>
<stop offset="1" stop-color="#00EAC2"/>
</linearGradient>
</defs>
</svg>
